<svg width="155" height="78" viewBox="0 0 155 78" fill="none" xmlns="http://www.w3.org/2000/svg">
<rect y="7" width="62" height="65" rx="8" fill="#4E904A"/>
<path d="M8.07812 43.7109C7.39062 41.5078 7.04688 39.125 7.04688 36.5625C7.04688 34 7.39062 31.5312 8.07812 29.1562C8.78125 26.7188 9.71875 24.7344 10.8906 23.2031C12.1094 21.5938 13.5156 20.3281 15.1094 19.4062C16.7188 18.4688 18.3438 18 19.9844 18C20.0625 18 20.1406 18 20.2188 18C22.0312 18 23.7109 18.4062 25.2578 19.2188C26.3203 19.7812 27.1641 20.3516 27.7891 20.9297L27.9766 20.9531C29.5391 20.8281 30.5703 19.8359 31.0703 17.9766V31.5234C30.2578 28.3359 29.3047 25.8359 28.2109 24.0234C27.6797 23.1953 27 22.4766 26.1719 21.8672C24.8906 20.9297 23.375 20.4609 21.625 20.4609C19.7812 20.4609 18 21.1406 16.2812 22.5C14.9219 23.8281 13.8594 25.8594 13.0938 28.5938C12.375 31.1719 12.0156 33.6953 12.0156 36.1641C12.0156 36.2578 12.0156 36.3594 12.0156 36.4688C12.0156 38.9062 12.2656 41.125 12.7656 43.125C13.6719 46.4844 14.6406 48.7188 15.6719 49.8281C17.0938 51.3594 18.6719 52.125 20.4062 52.125C21.875 52.125 23.3359 51.4609 24.7891 50.1328C26.3672 48.3828 27.2812 46.7812 27.5312 45.3281C27.6094 44.875 27.6484 44.4531 27.6484 44.0625C27.6484 43.25 27.5 42.5781 27.2031 42.0469L27.0859 41.8828C25.9141 40.2422 23.9219 39.2656 21.1094 38.9531H33.2969C33.1406 40.625 32.8281 42.2031 32.3594 43.6875C31.6719 45.9062 30.7344 47.8047 29.5469 49.3828C28.375 50.9453 26.9688 52.2031 25.3281 53.1562C23.7031 54.1094 22 54.5859 20.2188 54.5859C18.4375 54.5859 16.7344 54.1172 15.1094 53.1797C13.4844 52.2266 12.0781 50.9609 10.8906 49.3828C9.70312 47.7891 8.76562 45.8984 8.07812 43.7109ZM37.75 47.8594C37.75 47 38.0469 46.2734 38.6406 45.6797C39.2344 45.0703 39.9531 44.7656 40.7969 44.7656C41.6406 44.7656 42.3594 45.0703 42.9531 45.6797C43.5469 46.2734 43.8438 47 43.8438 47.8594C43.8438 48.6562 43.5469 49.3906 42.9531 50.0625C42.8281 50.2031 42.6875 50.3359 42.5312 50.4609L42.8125 50.6953C44.2188 51.7578 45.8516 52.2891 47.7109 52.2891C47.7266 52.2891 47.75 52.2891 47.7812 52.2891C49.2656 52.2891 50.4922 51.8984 51.4609 51.1172C52.3047 50.4297 52.7578 49.2344 52.8203 47.5312V47.0859C52.7422 45.4141 51.9531 44.3281 50.4531 43.8281L44.0781 41.9531C41.6875 41.25 40.1875 39.5547 39.5781 36.8672C39.5156 36.3984 39.4844 35.9375 39.4844 35.4844C39.4844 33.9375 40.1016 32.4062 41.3359 30.8906C42.8203 29.0781 44.8906 28.1719 47.5469 28.1719C50.0312 28.1719 52.1484 29 53.8984 30.6562C54.4766 31.2031 54.9219 31.7656 55.2344 32.3438C55.4688 32.7812 55.5859 33.2812 55.5859 33.8438C55.5859 34.6875 55.2891 35.4141 54.6953 36.0234C54.1016 36.6328 53.3828 36.9375 52.5391 36.9375C51.6953 36.9375 50.9766 36.6328 50.3828 36.0234C49.7891 35.4141 49.4922 34.6797 49.4922 33.8203C49.4922 32.9609 49.7891 32.2344 50.3828 31.6406L50.8281 31.3359C49.875 30.8047 48.7891 30.5391 47.5703 30.5391H47.5C46.4531 30.6172 45.5078 31.0078 44.6641 31.7109C43.9766 32.4297 43.6328 33.4531 43.6328 34.7812C43.6328 34.8906 43.6328 35 43.6328 35.1094C43.6328 36.4219 44.2969 37.3594 45.625 37.9219L51.1797 39.375C52.8047 39.9688 54.0156 40.6094 54.8125 41.2969C56.3125 42.5938 57.0781 44.5391 57.1094 47.1328C56.9531 49.0547 56.0938 50.8281 54.5312 52.4531C53.1406 53.875 50.8516 54.5859 47.6641 54.5859C44.8672 54.5859 42.4141 53.6797 40.3047 51.8672C39.2109 50.9141 38.4922 50.1016 38.1484 49.4297C38.0547 49.2422 37.9844 49.0859 37.9375 48.9609C37.8125 48.6328 37.75 48.2656 37.75 47.8594Z" fill="white"/>
<path d="M77.8438 58.1875C74.375 58.1875 71.8672 57.6406 70.3203 56.5469C68.7891 55.4531 68.0234 53.5703 68.0234 50.8984V36.4844H63.875V33.1562H68.1875L68.7266 25.4688H72.4297V33.1562H78.6641V36.4844H72.4297V50.6172C72.4297 52.1797 72.875 53.2188 73.7656 53.7344C74.6719 54.2344 76.2422 54.4844 78.4766 54.4844H78.9688L78.5 58.1875H77.8438ZM89.5625 50.9922C89.5625 53.7578 91.5234 55.1406 95.4453 55.1406C99.3672 55.1406 101.328 53.7578 101.328 50.9922V40.2344C101.328 37.4531 99.3672 36.0625 95.4453 36.0625C91.5234 36.0625 89.5625 37.4531 89.5625 40.2344V50.9922ZM105.734 50.6172C105.734 53.0547 104.898 54.9844 103.227 56.4062C101.57 57.8125 98.9688 58.5156 95.4219 58.5156C91.875 58.5156 89.2734 57.8125 87.6172 56.4062C85.9766 55 85.1562 53.0703 85.1562 50.6172V40.6094C85.1562 38.1562 85.9766 36.2266 87.6172 34.8203C89.2734 33.3984 91.875 32.6875 95.4219 32.6875C98.9688 32.6875 101.57 33.3984 103.227 34.8203C104.898 36.2422 105.734 38.1719 105.734 40.6094V50.6172ZM113.562 58V33.1562H117.969V36.6719C118.531 35.1406 120.055 34.0312 122.539 33.3438C123.836 32.9688 125.188 32.7891 126.594 32.8047L126.453 36.5781C124.328 36.5781 122.383 37 120.617 37.8438C118.852 38.6875 117.969 39.6094 117.969 40.6094V58H113.562ZM141.617 58.5156C137.977 58.5156 135.344 57.7578 133.719 56.2422C132.094 54.7266 131.281 52.3906 131.281 49.2344V40.5859C131.281 38.1328 132.117 36.2031 133.789 34.7969C135.461 33.3906 137.984 32.6875 141.359 32.6875C144.75 32.6875 147.266 33.3438 148.906 34.6562C150.562 35.9531 151.391 37.8125 151.391 40.2344V46.1406H135.688V49.6328C135.688 51.6953 136.102 53.1328 136.93 53.9453C137.758 54.7422 139.25 55.1406 141.406 55.1406C143.562 55.1406 144.781 55.0938 145.062 55C145.344 54.9062 145.633 54.7969 145.93 54.6719C146.227 54.5469 146.43 54.3984 146.539 54.2266C146.664 54.0547 146.82 53.7969 147.008 53.4531C147.211 53.0938 147.359 52.4062 147.453 51.3906H151.344C151.188 52.875 150.922 54.0703 150.547 54.9766C150.188 55.8828 149.609 56.6094 148.812 57.1562C148.031 57.6875 147.086 58.0469 145.977 58.2344C144.883 58.4219 143.43 58.5156 141.617 58.5156ZM135.688 43.1641H147.125V39.7656C147.125 38.3594 146.641 37.3906 145.672 36.8594C144.719 36.3281 143.312 36.0625 141.453 36.0625C139.594 36.0625 138.164 36.3828 137.164 37.0234C136.18 37.6641 135.688 38.7188 135.688 40.1875V43.1641Z" fill="black"/>
</svg>
