<svg width="62" height="65" viewBox="0 0 62 65" fill="none" xmlns="http://www.w3.org/2000/svg">
<rect width="62" height="65" rx="8" fill="#4E904A"/>
<path d="M8.07812 36.7109C7.39062 34.5078 7.04688 32.125 7.04688 29.5625C7.04688 27 7.39062 24.5312 8.07812 22.1562C8.78125 19.7188 9.71875 17.7344 10.8906 16.2031C12.1094 14.5937 13.5156 13.3281 15.1094 12.4062C16.7188 11.4688 18.3438 11 19.9844 11C20.0625 11 20.1406 11 20.2188 11C22.0312 11 23.7109 11.4062 25.2578 12.2188C26.3203 12.7812 27.1641 13.3516 27.7891 13.9297L27.9766 13.9531C29.5391 13.8281 30.5703 12.8359 31.0703 10.9766V24.5234C30.2578 21.3359 29.3047 18.8359 28.2109 17.0234C27.6797 16.1953 27 15.4766 26.1719 14.8672C24.8906 13.9297 23.375 13.4609 21.625 13.4609C19.7812 13.4609 18 14.1406 16.2812 15.5C14.9219 16.8281 13.8594 18.8594 13.0938 21.5938C12.375 24.1719 12.0156 26.6953 12.0156 29.1641C12.0156 29.2578 12.0156 29.3594 12.0156 29.4688C12.0156 31.9062 12.2656 34.125 12.7656 36.125C13.6719 39.4844 14.6406 41.7188 15.6719 42.8281C17.0938 44.3594 18.6719 45.125 20.4062 45.125C21.875 45.125 23.3359 44.4609 24.7891 43.1328C26.3672 41.3828 27.2812 39.7812 27.5312 38.3281C27.6094 37.875 27.6484 37.4531 27.6484 37.0625C27.6484 36.25 27.5 35.5781 27.2031 35.0469L27.0859 34.8828C25.9141 33.2422 23.9219 32.2656 21.1094 31.9531H33.2969C33.1406 33.625 32.8281 35.2031 32.3594 36.6875C31.6719 38.9062 30.7344 40.8047 29.5469 42.3828C28.375 43.9453 26.9688 45.2031 25.3281 46.1562C23.7031 47.1094 22 47.5859 20.2188 47.5859C18.4375 47.5859 16.7344 47.1172 15.1094 46.1797C13.4844 45.2266 12.0781 43.9609 10.8906 42.3828C9.70312 40.7891 8.76562 38.8984 8.07812 36.7109ZM37.75 40.8594C37.75 40 38.0469 39.2734 38.6406 38.6797C39.2344 38.0703 39.9531 37.7656 40.7969 37.7656C41.6406 37.7656 42.3594 38.0703 42.9531 38.6797C43.5469 39.2734 43.8438 40 43.8438 40.8594C43.8438 41.6562 43.5469 42.3906 42.9531 43.0625C42.8281 43.2031 42.6875 43.3359 42.5312 43.4609L42.8125 43.6953C44.2188 44.7578 45.8516 45.2891 47.7109 45.2891C47.7266 45.2891 47.75 45.2891 47.7812 45.2891C49.2656 45.2891 50.4922 44.8984 51.4609 44.1172C52.3047 43.4297 52.7578 42.2344 52.8203 40.5312V40.0859C52.7422 38.4141 51.9531 37.3281 50.4531 36.8281L44.0781 34.9531C41.6875 34.25 40.1875 32.5547 39.5781 29.8672C39.5156 29.3984 39.4844 28.9375 39.4844 28.4844C39.4844 26.9375 40.1016 25.4062 41.3359 23.8906C42.8203 22.0781 44.8906 21.1719 47.5469 21.1719C50.0312 21.1719 52.1484 22 53.8984 23.6562C54.4766 24.2031 54.9219 24.7656 55.2344 25.3438C55.4688 25.7812 55.5859 26.2812 55.5859 26.8438C55.5859 27.6875 55.2891 28.4141 54.6953 29.0234C54.1016 29.6328 53.3828 29.9375 52.5391 29.9375C51.6953 29.9375 50.9766 29.6328 50.3828 29.0234C49.7891 28.4141 49.4922 27.6797 49.4922 26.8203C49.4922 25.9609 49.7891 25.2344 50.3828 24.6406L50.8281 24.3359C49.875 23.8047 48.7891 23.5391 47.5703 23.5391H47.5C46.4531 23.6172 45.5078 24.0078 44.6641 24.7109C43.9766 25.4297 43.6328 26.4531 43.6328 27.7812C43.6328 27.8906 43.6328 28 43.6328 28.1094C43.6328 29.4219 44.2969 30.3594 45.625 30.9219L51.1797 32.375C52.8047 32.9688 54.0156 33.6094 54.8125 34.2969C56.3125 35.5938 57.0781 37.5391 57.1094 40.1328C56.9531 42.0547 56.0938 43.8281 54.5312 45.4531C53.1406 46.875 50.8516 47.5859 47.6641 47.5859C44.8672 47.5859 42.4141 46.6797 40.3047 44.8672C39.2109 43.9141 38.4922 43.1016 38.1484 42.4297C38.0547 42.2422 37.9844 42.0859 37.9375 41.9609C37.8125 41.6328 37.75 41.2656 37.75 40.8594Z" fill="white"/>
</svg>
